<svg width="24" height="24" viewBox="0 0 24 24" fill="none" xmlns="http://www.w3.org/2000/svg">
<path fill-rule="evenodd" clip-rule="evenodd" d="M16 12C16 14.2091 14.2092 16 12 16C9.79089 16 8.00003 14.2091 8.00003 12C8.00003 9.79086 9.79089 8 12 8C14.2092 8 16 9.79086 16 12ZM14 12C14 13.1046 13.1046 14 12 14C10.8955 14 10 13.1046 10 12C10 10.8954 10.8955 10 12 10C13.1046 10 14 10.8954 14 12Z" fill="#2E3A59"/>
<path fill-rule="evenodd" clip-rule="evenodd" d="M2.4297 8.57627L4.2498 5.42375C4.48477 5.01677 4.97142 4.82831 5.41921 4.97089L7.25618 5.55576C7.5013 5.37551 7.75563 5.21016 8.01769 5.06011C8.26733 4.91655 8.52546 4.78606 8.79113 4.6696L9.2031 2.7863C9.30352 2.32722 9.71006 2 10.18 2H13.8202C14.2901 2 14.6967 2.32722 14.7971 2.7863L15.2091 4.6696C15.491 4.79318 15.7644 4.93254 16.0282 5.08657C16.2741 5.22954 16.513 5.38604 16.7438 5.55576L18.5808 4.97089C19.0286 4.82831 19.5152 5.01678 19.7502 5.42375L21.5703 8.57627C21.8053 8.98325 21.7252 9.49893 21.3778 9.81544L19.9528 11.1139C19.9855 11.4088 20.0016 11.7043 20.0013 11.9989C20.0017 12.2942 19.9856 12.5904 19.9528 12.8862L21.3778 14.1846C21.7252 14.5011 21.8053 15.0168 21.5703 15.4238L19.7502 18.5763C19.5152 18.9832 19.0286 19.1717 18.5808 19.0291L16.7438 18.4443C16.5102 18.6161 16.2682 18.7743 16.0191 18.9187C15.7581 19.0706 15.4878 19.2082 15.2091 19.3304L14.7971 21.2137C14.6967 21.6728 14.2901 22 13.8202 22H10.18C9.71006 22 9.30352 21.6728 9.2031 21.2137L8.79113 19.3304C8.52855 19.2153 8.27334 19.0865 8.02641 18.9449C7.76127 18.7935 7.50401 18.6265 7.25618 18.4443L5.41921 19.0291C4.97142 19.1717 4.48477 18.9832 4.2498 18.5763L2.4297 15.4238C2.19473 15.0168 2.27484 14.5011 2.6222 14.1846L4.0472 12.8862C4.01445 12.5908 3.99839 12.295 3.99867 12C3.9984 11.705 4.01445 11.4092 4.0472 11.1139L2.62221 9.81544C2.27484 9.49893 2.19473 8.98324 2.4297 8.57627ZM13.0153 4L13.473 6.09226L14.4061 6.50132C14.6171 6.59382 14.8219 6.69821 15.0197 6.8137L15.0229 6.81557C15.2072 6.92275 15.3863 7.04 15.559 7.16703L16.3798 7.77058L18.4206 7.12082L19.4358 8.87921L17.8527 10.3217L17.965 11.3343C17.9895 11.5551 18.0015 11.7764 18.0013 11.9973L18.0013 12.001C18.0016 12.2225 17.9895 12.4444 17.965 12.6657L17.8527 13.6783L19.4358 15.1208L18.4206 16.8792L16.3798 16.2294L15.559 16.833C15.3841 16.9616 15.2029 17.0801 15.0161 17.1884L15.0129 17.1902C14.8172 17.3042 14.6147 17.4072 14.4061 17.4987L13.473 17.9077L13.0153 20H10.9849L10.5272 17.9077L9.59413 17.4987C9.39758 17.4125 9.2064 17.316 9.02128 17.2099L9.01801 17.208C8.81921 17.0945 8.6265 16.9694 8.44099 16.833L7.6202 16.2294L5.5794 16.8792L4.56419 15.1208L6.14731 13.6783L6.03501 12.6657C6.0105 12.4446 5.99846 12.223 5.99867 12.0019L5.99867 11.9981C5.99846 11.777 6.0105 11.5554 6.03501 11.3343L6.14731 10.3217L4.5642 8.87921L5.5794 7.12081L7.6202 7.77058L8.44099 7.16703C8.62447 7.03211 8.81499 6.90824 9.01148 6.79574L9.01474 6.79386C9.2019 6.68623 9.39526 6.58849 9.59413 6.50132L10.5272 6.09226L10.9849 4H13.0153Z" fill="#2E3A59"/>
</svg>
