<svg width="40" height="40" viewBox="0 0 40 40" fill="none" xmlns="http://www.w3.org/2000/svg">
<rect x="0.5" y="0.5" width="39" height="39" rx="3.5" fill="#2F1600" stroke="#F67400"/>
<path d="M14.6963 8.88892L8.59259 29.6297H10.9037L12.8593 22.9334H19.0222L21.0667 29.6297H23.4667L17.1556 8.88892H14.6963ZM13.4222 20.7408L15.9111 12.326L18.4889 20.7408H13.4222Z" fill="white"/>
<path d="M27.3037 8.59262C26.9777 8.59262 26.6889 8.71855 26.4444 8.96299C26.2 9.20744 26.074 9.48892 26.074 9.80744C26.074 10.126 26.2 10.4074 26.4444 10.6519C26.6889 10.8963 26.9777 11.0223 27.3037 11.0223C27.6296 11.0223 27.9111 10.9037 28.1481 10.6667C28.3851 10.4297 28.5037 10.1408 28.5037 9.80744C28.5037 9.4741 28.3851 9.18521 28.1481 8.94818C27.9111 8.71114 27.6296 8.59262 27.3037 8.59262Z" fill="white"/>
<path d="M28.326 14.7852H26.1926V29.6297H28.326V14.7852Z" fill="white"/>
</svg>
