<svg width="40" height="40" viewBox="0 0 40 40" fill="none" xmlns="http://www.w3.org/2000/svg">
<rect x="0.5" y="0.5" width="39" height="39" rx="3.5" fill="white" stroke="#488000"/>
<path d="M4.28571 14.429H13.1272V16.1162H6.2195V18.5356H9.74302C10.4198 18.5356 11.0161 18.6258 11.5318 18.8062C12.0582 18.976 12.4987 19.2147 12.8532 19.5225C13.2077 19.8302 13.4763 20.2016 13.659 20.6367C13.8416 21.0611 13.9329 21.5333 13.9329 22.0533C13.9329 23.1675 13.5945 24.0324 12.9177 24.6478C12.2408 25.2633 11.1826 25.7143 9.74302 25.7143H4.28571V14.429ZM6.2195 20.2228V23.8838H9.74302C10.4628 23.8838 11 23.7193 11.3545 23.3904C11.7198 23.0614 11.9024 22.6157 11.9024 22.0533C11.9024 21.5227 11.7144 21.0877 11.3384 20.7481C10.9624 20.3979 10.4306 20.2228 9.74302 20.2228H6.2195Z" fill="#488000"/>
<path d="M18.0009 19.2519H22.2391C22.1746 18.2226 21.89 17.4585 21.385 16.9598C20.8801 16.4611 20.2355 16.2117 19.4512 16.2117C18.7422 16.2117 18.1781 16.3868 17.7591 16.737C17.3509 17.0765 17.0662 17.4957 16.9051 17.9944H14.7779C14.8531 17.5063 15.0142 17.05 15.2613 16.6255C15.5084 16.1905 15.8254 15.8138 16.2121 15.4954C16.6096 15.1665 17.0823 14.9065 17.6302 14.7155C18.1781 14.5245 18.7905 14.429 19.4673 14.429C20.1871 14.429 20.8425 14.5457 21.4334 14.7791C22.0242 15.0126 22.5292 15.3522 22.9482 15.7978C23.3779 16.2435 23.7056 16.79 23.9312 17.4373C24.1675 18.0846 24.2857 18.8221 24.2857 19.6498V20.4775C24.2857 21.337 24.1675 21.9578 23.9312 22.6263C23.6948 23.2842 23.3618 23.8466 22.9321 24.3136C22.5131 24.7698 22.0028 25.12 21.4011 25.3641C20.8102 25.5975 20.1603 25.7143 19.4512 25.7143C18.7744 25.7143 18.1674 25.6188 17.6302 25.4278C17.0931 25.2368 16.6257 24.9715 16.2282 24.6319C15.8307 24.2817 15.5084 23.8679 15.2613 23.3904C15.0142 22.9128 14.8531 22.3929 14.7779 21.8305H16.9051C17.0555 22.4672 17.3402 22.9765 17.7591 23.3585C18.1889 23.7405 18.7529 23.9315 19.4512 23.9315C20.2462 23.9315 20.8962 23.6769 21.4011 23.1675C21.9061 22.6582 22.1854 21.9896 22.2391 20.8754H18.0009V19.2519Z" fill="#488000"/>
<path d="M27.8571 18.2491L27.1964 16.5619V25.7143H25.2626V14.429H28.1633L30.5596 20.4775L32.8458 14.429H35.7143V25.7143H33.7805V16.5459L33.1037 18.2491L31.5104 22.6422H29.5766L27.8571 18.2491Z" fill="#488000"/>
</svg>
