<svg width="40" height="40" viewBox="0 0 40 40" fill="none" xmlns="http://www.w3.org/2000/svg">
<rect x="0.5" y="0.5" width="39" height="39" rx="3.5" fill="white" stroke="#2062AF"/>
<path d="M28.1248 33.1694L19.9999 35.3572L11.8749 33.1694L10 12.8571H30L28.1248 33.1694Z" fill="#2062AF"/>
<path d="M19.9999 14.5024V33.6123L20.0182 33.6173L26.5934 31.8467L28.1111 14.5024H19.9999Z" fill="#1682C5"/>
<path d="M19.9926 19.5813L14.1774 22.0032L14.3702 24.4011L19.9926 21.9972L25.9734 19.4401L26.2214 16.9872L19.9926 19.5813Z" fill="white"/>
<path d="M14.1774 22.0032L14.3702 24.4011L19.9926 21.9971V19.5813L14.1774 22.0032Z" fill="url(#paint0_linear)"/>
<path d="M26.2214 16.9872L19.9927 19.5813V21.9971L25.9735 19.44L26.2214 16.9872Z" fill="url(#paint1_linear)"/>
<path d="M14.1862 22.0033L14.3791 24.4011L23.006 24.4286L22.813 27.6258L19.9743 28.4249L17.2454 27.7359L17.0801 25.7515H14.5445L14.8752 29.5825L20.0018 31.0983L25.1006 29.61L25.7622 22.0033H14.1862Z" fill="url(#paint2_linear)"/>
<g opacity="0.05">
<path opacity="0.05" d="M19.9926 22.0033H14.1774L14.3702 24.4011L19.9926 24.4191V22.0033ZM19.9926 28.4173L19.9651 28.425L17.2366 27.736L17.0712 25.7516H14.5357L14.8664 29.5826L19.9926 31.0984V28.4173Z" fill="black"/>
</g>
<path d="M13.6537 16.9872H26.2215L25.9735 19.4401H13.9569L13.6537 16.9872Z" fill="url(#paint3_linear)"/>
<path opacity="0.05" d="M19.9927 16.9872H13.6537L13.9569 19.4401H19.9927V16.9872Z" fill="black"/>
<path d="M17.7548 4.68207V5.67299C17.2458 5.26561 16.684 5.06192 16.0695 5.06192C15.3991 5.06192 14.8528 5.26011 14.4307 5.65647C14.0148 6.04734 13.8069 6.5483 13.8069 7.15936C13.8069 7.74841 14.021 8.24111 14.4493 8.63748C14.8776 9.02834 15.4208 9.22377 16.0788 9.22377C16.6933 9.22377 17.252 9.01183 17.7548 8.58793V9.58711C17.2334 9.86236 16.6654 9.99999 16.0508 9.99999C15.188 9.99999 14.4555 9.74676 13.8534 9.24029C13.1892 8.68978 12.8571 7.99614 12.8571 7.15936C12.8571 6.27855 13.1892 5.56013 13.8534 5.00412C14.4245 4.52518 15.1725 4.28571 16.0974 4.28571C16.7368 4.28571 17.2892 4.41783 17.7548 4.68207Z" fill="#2062AF"/>
<path d="M22.3742 5.21056L21.6107 5.60693C21.5486 5.47481 21.4555 5.3592 21.3314 5.26011C21.1451 5.12798 20.9217 5.06192 20.661 5.06192C20.3816 5.06192 20.1644 5.12523 20.0092 5.25185C19.8602 5.37847 19.7857 5.53536 19.7857 5.72253C19.7857 6.0088 20.0092 6.23176 20.4561 6.3914L21.08 6.61436C22.0545 6.96669 22.5418 7.50618 22.5418 8.23286C22.5418 8.75584 22.3525 9.18249 21.9738 9.51279C21.6014 9.83759 21.1234 9.99999 20.5399 9.99999C19.9378 9.99999 19.4505 9.81557 19.0781 9.44673C18.7739 9.14395 18.6001 8.78612 18.5566 8.37324L19.4971 8.19157C19.4971 8.45581 19.584 8.68978 19.7578 8.89347C19.9564 9.11367 20.2264 9.22377 20.5678 9.22377C20.8596 9.22377 21.1017 9.13844 21.2941 8.96779C21.4928 8.79713 21.5921 8.57417 21.5921 8.29892C21.5921 8.04568 21.5083 7.85025 21.3407 7.71263C21.1793 7.575 20.9651 7.45664 20.6982 7.35755L20.1023 7.13459C19.2581 6.8208 18.836 6.35562 18.836 5.73905C18.836 5.34268 18.9974 5.00137 19.3201 4.7151C19.6491 4.42884 20.093 4.28571 20.6516 4.28571C21.1544 4.28571 21.5703 4.40957 21.8993 4.6573C22.0918 4.81144 22.2501 4.99586 22.3742 5.21056Z" fill="#2062AF"/>
<path d="M26.9752 5.21056L26.2117 5.60693C26.1496 5.47481 26.0565 5.3592 25.9324 5.26011C25.7462 5.12798 25.5227 5.06192 25.262 5.06192C24.9826 5.06192 24.7654 5.12523 24.6102 5.25185C24.4612 5.37847 24.3867 5.53536 24.3867 5.72253C24.3867 6.0088 24.6102 6.23176 25.0571 6.3914L25.681 6.61436C26.6555 6.96669 27.1428 7.50618 27.1428 8.23286C27.1428 8.75584 26.9535 9.18249 26.5748 9.51279C26.2024 9.83759 25.7244 9.99999 25.1409 9.99999C24.5388 9.99999 24.0515 9.81557 23.6791 9.44673C23.3749 9.14395 23.2011 8.78612 23.1577 8.37324L24.0981 8.19157C24.0981 8.45581 24.185 8.68978 24.3588 8.89347C24.5574 9.11367 24.8275 9.22377 25.1689 9.22377C25.4606 9.22377 25.7027 9.13844 25.8951 8.96779C26.0938 8.79713 26.1931 8.57417 26.1931 8.29892C26.1931 8.04568 26.1093 7.85025 25.9417 7.71263C25.7803 7.575 25.5661 7.45664 25.2992 7.35755L24.7033 7.13459C23.8591 6.8208 23.437 6.35562 23.437 5.73905C23.437 5.34268 23.5984 5.00137 23.9212 4.7151C24.2502 4.42884 24.694 4.28571 25.2527 4.28571C25.7555 4.28571 26.1714 4.40957 26.5004 4.6573C26.6928 4.81144 26.8511 4.99586 26.9752 5.21056Z" fill="#2062AF"/>
<defs>
<linearGradient id="paint0_linear" x1="17.085" y1="24.4011" x2="17.085" y2="19.5813" gradientUnits="userSpaceOnUse">
<stop offset="0.387" stop-color="#D1D3D4" stop-opacity="0"/>
<stop offset="1" stop-color="#D1D3D4"/>
</linearGradient>
<linearGradient id="paint1_linear" x1="23.107" y1="21.9971" x2="23.107" y2="16.9872" gradientUnits="userSpaceOnUse">
<stop offset="0.387" stop-color="#D1D3D4" stop-opacity="0"/>
<stop offset="1" stop-color="#D1D3D4"/>
</linearGradient>
<linearGradient id="paint2_linear" x1="14.1862" y1="26.5508" x2="25.7621" y2="26.5508" gradientUnits="userSpaceOnUse">
<stop stop-color="#E8E7E5"/>
<stop offset="1" stop-color="white"/>
</linearGradient>
<linearGradient id="paint3_linear" x1="13.6538" y1="18.2136" x2="26.2215" y2="18.2136" gradientUnits="userSpaceOnUse">
<stop stop-color="#E8E7E5"/>
<stop offset="1" stop-color="white"/>
</linearGradient>
</defs>
</svg>
