<svg width="40" height="40" viewBox="0 0 40 40" fill="none" xmlns="http://www.w3.org/2000/svg">
<rect width="40" height="40" rx="4" fill="black"/>
<path d="M12.0001 11.3996C12.0001 13.7832 13.954 15.7333 16.3422 15.7333H20.6667V7.06665H16.3422C13.954 7.06665 12.0001 9.01679 12.0001 11.3996Z" fill="#F24E1E"/>
<path d="M29.3334 11.3996C29.3334 13.7832 27.3795 15.7333 24.9912 15.7333H20.6667V7.06665H24.9912C27.3795 7.06665 29.3334 9.01679 29.3334 11.3996Z" fill="#FF7262"/>
<path fill-rule="evenodd" clip-rule="evenodd" d="M16.2939 24.4H20.6667V15.7333H16.2939C15.115 15.7333 14.0406 16.2205 13.2618 17.006C12.4831 17.7915 12.0001 18.876 12.0001 20.069C12.0001 22.4504 13.9322 24.4 16.2939 24.4Z" fill="#A259FF"/>
<path fill-rule="evenodd" clip-rule="evenodd" d="M25.0001 15.7333C22.6073 15.7333 20.6667 17.6733 20.6667 20.0671C20.6667 22.46 22.6073 24.4 25.0001 24.4C27.3928 24.4 29.3334 22.46 29.3334 20.0671C29.3334 17.6733 27.3928 15.7333 25.0001 15.7333Z" fill="#1ABCFE"/>
<path fill-rule="evenodd" clip-rule="evenodd" d="M20.6581 24.4H16.169V24.4086C13.8526 24.4953 12.0001 26.3954 12.0001 28.7337C12.0001 31.1267 13.94 33.0667 16.333 33.0667C18.6518 33.0667 20.5402 31.2438 20.6558 28.954H20.6581V28.9048C20.6605 28.8477 20.6667 28.7915 20.6667 28.7337C20.6667 28.6759 20.6605 28.6197 20.6581 28.5619V24.4Z" fill="#0ACF83"/>
</svg>
