<svg width="40" height="40" viewBox="0 0 40 40" fill="none" xmlns="http://www.w3.org/2000/svg">
<rect x="0.5" y="0.5" width="39" height="39" rx="3.5" fill="white" stroke="#DA4648"/>
<path fill-rule="evenodd" clip-rule="evenodd" d="M25.9972 20.8035L27.0148 11.9796C27.0148 11.9796 26.0509 12.7502 19.9151 12.7502C13.7788 12.7502 12.9143 11.9956 12.9143 11.9956L13.7206 19.4969C14.1523 18.3109 15.1815 15.8982 16.8056 15.9791C17.5435 16.0154 18.5275 17.3866 17.6841 17.4331C17.3277 17.4525 17.2925 16.7488 16.8708 16.6455C16.5661 16.5709 16.1414 16.8103 15.8668 17.0696C15.3196 17.5868 14.1423 19.6267 14.2979 20.6441C14.4967 21.9406 16.1519 20.1933 16.4316 19.6747C16.6294 19.3093 16.7629 18.2265 17.1946 18.3399C17.6254 18.4534 17.1565 19.571 16.8432 20.5588C16.4918 21.6687 16.3076 22.8406 15.8673 22.7059C15.427 22.5702 16.1434 21.1394 16.1183 20.8884C15.7041 21.2567 14.94 22.1921 13.9631 21.7268L14.4802 26.5416C14.4802 26.5416 15.8271 27.5691 19.8845 27.5691C23.9409 27.5691 25.339 26.5581 25.339 26.5581L25.9129 21.5829C25.3506 22.0724 23.8144 22.8527 23.713 21.9125C23.6296 21.1346 25.4781 20.0067 25.0032 19.9689C23.9826 20.0271 23.474 21.1258 22.9599 22.276C22.7722 22.6976 22.1281 24.4977 21.7049 24.2762C21.2832 24.0542 22.2531 22.575 22.5247 21.6978C22.2109 21.9188 21.0603 22.7815 20.7641 21.974C20.2871 22.3642 19.268 22.576 19.3835 21.5494C19.1305 21.9837 18.5602 22.5891 17.8774 22.3375C16.9808 22.007 18.398 19.2477 18.7509 19.3868C19.1023 19.5259 18.6791 20.1546 18.5682 20.3988C18.3242 20.9359 18.0426 21.6115 18.2318 21.7496C18.5531 21.9861 19.4317 20.853 19.4503 20.8287C19.6144 20.6194 20.0828 19.2487 20.4593 19.4067C20.8358 19.5637 19.519 21.3725 20.0115 21.7317C20.1119 21.8044 20.5176 21.6871 20.7646 21.4288C20.9252 21.262 20.87 20.8922 21.4021 19.6646C21.9363 18.4369 22.4112 16.9082 22.7777 17.0245C23.1427 17.1409 22.8415 17.926 22.7104 18.2183C22.0959 19.5918 21.0311 21.8601 21.5332 21.6885C22.0352 21.5165 22.2962 21.5068 22.7882 20.9518C23.2802 20.3959 23.2571 19.4809 23.585 19.5007C23.9133 19.5201 23.8581 19.8129 23.7787 20.0363C24.101 19.6805 25.3074 18.9298 25.5986 19.6728C25.945 20.553 23.8736 21.8238 24.3902 21.7593C24.8696 21.6982 25.6342 21.2426 26.0067 20.8074L25.9972 20.8035ZM21.7952 10.5566C21.2219 10.5362 20.6205 10.5255 20.001 10.5255C16.055 10.5255 12.8571 10.9598 12.8571 11.4949C12.8571 12.03 16.055 12.4642 20 12.4642C23.9449 12.4642 27.1428 12.03 27.1428 11.4949C27.1428 11.1071 25.4645 10.7727 23.0403 10.6176L23.5348 8.73079L27.0725 5.13694L27.056 5.12337C27.066 5.11707 27.0771 5.10883 27.0861 5.09913C27.1765 4.99977 27.0409 4.74629 26.7849 4.53206C26.5288 4.31881 26.2492 4.22672 26.1604 4.32511C26.1483 4.3382 26.1403 4.35419 26.1363 4.37115L22.3926 8.19911L21.7932 10.5566H21.7952ZM23.8796 33.3624C23.8796 33.8723 22.1376 34.2857 19.9889 34.2857C17.8402 34.2857 16.0982 33.8723 16.0982 33.3624L15.7649 28.6058L14.8221 27.0946C14.8221 27.0946 16.7057 27.8362 19.9076 27.8362C23.1105 27.8362 25.0233 27.0801 25.0233 27.0801L24.1829 28.4662L23.8786 33.3624H23.8796ZM22.6989 11.7586C22.8194 11.743 23.0051 11.7212 23.0051 11.5807C23.0051 11.4983 22.9328 11.4498 22.8505 11.4256L22.7892 11.5177C22.8394 11.5298 22.8696 11.5448 22.8696 11.5603C22.8686 11.6127 22.483 11.6379 22.1647 11.6417C21.8464 11.6456 21.4297 11.6093 21.4303 11.5564C21.4303 11.5453 21.4453 11.5346 21.4729 11.5259L21.4112 11.4324C21.3459 11.4605 21.2947 11.5002 21.2947 11.571C21.2947 11.6078 21.3113 11.6616 21.3424 11.6888C21.4579 11.7905 21.7465 11.7939 22.1537 11.792C22.5603 11.7905 22.6994 11.7605 22.6994 11.7605L22.6989 11.7586Z" fill="#DA4648"/>
</svg>
