<svg width="40" height="40" viewBox="0 0 40 40" fill="none" xmlns="http://www.w3.org/2000/svg">
<rect x="0.5" y="0.5" width="39" height="39" rx="3.5" fill="white" stroke="#E44D26"/>
<path d="M28.1777 33.1049L19.9878 35.3571L11.8199 33.1081L10 12.8571H30L28.1777 33.1049Z" fill="#E44D26"/>
<path d="M19.9999 14.5127V33.6354L26.618 31.8157L28.175 14.5127H19.9999Z" fill="#F16529"/>
<path d="M19.9999 19.4805V16.9963H13.7216L13.7817 17.6631L14.397 24.5075H19.9999V22.0238H16.6868L16.458 19.4805H19.9999ZM17.022 25.749H14.5089L14.8596 29.6487L19.9884 31.0614L19.9999 31.0582V28.4739L19.9889 28.4771L17.2007 27.73L17.022 25.749Z" fill="#EBEBEB"/>
<path d="M22.7837 27.7284L19.9911 28.4761V31.0604L25.1243 29.6487L25.1618 29.2292L25.7501 22.6906L25.8113 22.0238H19.9911V24.5075H23.0743L22.7837 27.7284ZM19.9911 19.4806H26.039L26.0892 18.9221L26.2033 17.6631L26.2634 16.9964H19.9911V19.474V19.4806Z" fill="white"/>
<path d="M10.6699 4.58194V6.69459H13.7661V4.58194H14.4361V9.78171H13.7661V7.2403H10.6699V9.78171H10V4.58194H10.6699Z" fill="#E44D26"/>
<path d="M18.9455 5.12765H17.4789V9.78171H16.809V5.12765H15.3424V4.58194H18.9455V5.12765Z" fill="#E44D26"/>
<path d="M20.3287 9.78171H19.6406L20.6455 4.2935L22.9631 8.68251L25.326 4.28571L26.2675 9.78171H25.5795L25.0092 6.16448L22.9541 9.99999L20.9262 6.16448L20.3287 9.78171Z" fill="#E44D26"/>
<path d="M27.6643 4.58194H28.3342V9.23601H30V9.78171H27.6643V4.58194Z" fill="#E44D26"/>
</svg>
