<svg width="40" height="40" viewBox="0 0 40 40" fill="none" xmlns="http://www.w3.org/2000/svg">
<rect x="0.5" y="0.5" width="39" height="39" rx="3.5" fill="white" stroke="#214674"/>
<path d="M9.20826 14.5397H8.68787C8.13467 14.5397 7.73149 14.6878 7.47833 14.9841C7.22517 15.2698 7.09859 15.7355 7.09859 16.381V17.7302C7.09859 17.9736 7.08453 18.2064 7.0564 18.4286C7.03765 18.6402 6.99077 18.8413 6.91576 19.0318C6.84075 19.2222 6.73292 19.4021 6.59227 19.5714C6.45163 19.7407 6.2641 19.8889 6.0297 20.0159C6.2641 20.1429 6.45163 20.291 6.59227 20.4603C6.73292 20.6191 6.84075 20.7937 6.91576 20.9841C6.99077 21.1746 7.03765 21.381 7.0564 21.6032C7.08453 21.8148 7.09859 22.037 7.09859 22.2698V23.6191C7.09859 24.2646 7.22517 24.7302 7.47833 25.0159C7.73149 25.3122 8.13467 25.4603 8.68787 25.4603H9.20826V27.1429H8.26594C6.36255 27.1429 5.41086 26.0688 5.41086 23.9206V22.4921C5.41086 21.9206 5.30303 21.5132 5.08738 21.2698C4.8811 21.0265 4.61388 20.8783 4.28571 20.8254V19.1746C4.61388 19.1217 4.8811 18.9788 5.08738 18.746C5.30303 18.5027 5.41086 18.0952 5.41086 17.5238V16.0794C5.41086 13.9312 6.36255 12.8571 8.26594 12.8571H9.20826V14.5397Z" fill="#214674"/>
<path d="M11.5148 23.9683C10.7741 23.9683 10.2021 23.746 9.79893 23.3016C9.40513 22.8466 9.20822 22.1958 9.20822 21.3492L9.20826 12.8571L10.8397 12.8572V21.1587C10.8397 21.5714 10.9194 21.873 11.0788 22.0635C11.2382 22.254 11.482 22.3492 11.8101 22.3492H12.1618V23.9683H11.5148Z" fill="#214674"/>
<path d="M15.4669 24.1111C14.9606 24.1111 14.5058 24.0265 14.1026 23.8572C13.6995 23.6773 13.3525 23.4233 13.0619 23.0953C12.7712 22.7566 12.5462 22.3492 12.3868 21.873C12.2368 21.3968 12.1618 20.8572 12.1618 20.254V19.7461C12.1618 19.1429 12.2368 18.6032 12.3868 18.127C12.5462 17.6508 12.7712 17.2487 13.0619 16.9207C13.3525 16.582 13.6995 16.3281 14.1026 16.1588C14.5058 15.9789 14.9606 15.8889 15.4669 15.8889C16.4889 15.8889 17.2953 16.2434 17.886 16.9524C18.4767 17.6614 18.772 18.6773 18.772 20V20.6191H13.7932C13.8401 21.2857 14.0042 21.7672 14.2855 22.0635C14.5668 22.3492 14.9606 22.4921 15.4669 22.4921C15.9638 22.4921 16.3248 22.3968 16.5499 22.2064C16.7843 22.0053 16.939 21.7725 17.014 21.508H18.7017C18.6267 21.8783 18.5095 22.2222 18.3501 22.5397C18.1907 22.8572 17.9797 23.1323 17.7172 23.3651C17.4547 23.5979 17.1359 23.7831 16.7608 23.9207C16.3858 24.0476 15.9545 24.1111 15.4669 24.1111ZM15.4669 17.508C14.9887 17.508 14.6137 17.6402 14.3417 17.9048C14.0698 18.1693 13.8964 18.5873 13.8214 19.1588H17.1124C17.0468 18.5662 16.8733 18.1429 16.5921 17.8889C16.3201 17.6349 15.9451 17.508 15.4669 17.508Z" fill="#214674"/>
<path d="M21.9559 24.1111C20.9902 24.1111 20.2729 23.873 19.8041 23.3968C19.3446 22.9101 19.0774 22.2275 19.0024 21.3492H20.7183C20.7933 21.8042 20.9152 22.127 21.0839 22.3175C21.2621 22.4974 21.5527 22.5873 21.9559 22.5873C22.4341 22.5873 22.7576 22.5132 22.9264 22.3651C23.1045 22.2064 23.1936 22 23.1936 21.746C23.1936 21.4603 23.0905 21.2434 22.8842 21.0953C22.6873 20.9471 22.4388 20.8307 22.1388 20.746C21.8387 20.6508 21.5152 20.5662 21.1683 20.4921C20.8214 20.4074 20.4979 20.2857 20.1979 20.127C19.8978 19.9577 19.6447 19.7302 19.4384 19.4445C19.2415 19.1482 19.143 18.7408 19.143 18.2222C19.143 17.8942 19.1993 17.5873 19.3118 17.3016C19.4243 17.0159 19.5978 16.7725 19.8322 16.5714C20.0666 16.3598 20.3573 16.1958 20.7042 16.0794C21.0605 15.9524 21.4777 15.8889 21.9559 15.8889C22.8561 15.8889 23.5311 16.127 23.9812 16.6032C24.4313 17.0688 24.6938 17.7249 24.7688 18.5714H23.053C22.9779 18.1376 22.8607 17.836 22.7013 17.6667C22.5513 17.4974 22.3029 17.4127 21.9559 17.4127C21.5527 17.4127 21.2668 17.4868 21.098 17.6349C20.9386 17.7831 20.8589 17.963 20.8589 18.1746C20.8589 18.4392 20.9574 18.6349 21.1543 18.7619C21.3605 18.8783 21.6137 18.9789 21.9137 19.0635C22.2138 19.1376 22.5373 19.2169 22.8842 19.3016C23.2311 19.3757 23.5546 19.5027 23.8546 19.6826C24.1547 19.8519 24.4031 20.0953 24.6 20.4127C24.8063 20.7302 24.9095 21.1587 24.9095 21.6984C24.9095 22.0476 24.8485 22.3704 24.7266 22.6667C24.6141 22.963 24.436 23.2169 24.1922 23.4286C23.9578 23.6402 23.653 23.8095 23.278 23.9365C22.9123 24.0529 22.4716 24.1111 21.9559 24.1111Z" fill="#214674"/>
<path d="M28.1476 24.1111C27.1818 24.1111 26.4645 23.873 25.9957 23.3968C25.5363 22.9101 25.2691 22.2275 25.194 21.3492H26.9099C26.9849 21.8042 27.1068 22.127 27.2756 22.3175C27.4537 22.4974 27.7444 22.5873 28.1476 22.5873C28.6258 22.5873 28.9492 22.5132 29.118 22.3651C29.2962 22.2064 29.3852 22 29.3852 21.746C29.3852 21.4603 29.2821 21.2434 29.0758 21.0953C28.8789 20.9471 28.6305 20.8307 28.3304 20.746C28.0304 20.6508 27.7069 20.5662 27.36 20.4921C27.013 20.4074 26.6896 20.2857 26.3895 20.127C26.0895 19.9577 25.8363 19.7302 25.63 19.4445C25.4331 19.1482 25.3347 18.7408 25.3347 18.2222C25.3347 17.8942 25.3909 17.5873 25.5035 17.3016C25.616 17.0159 25.7894 16.7725 26.0238 16.5714C26.2583 16.3598 26.5489 16.1958 26.8958 16.0794C27.2521 15.9524 27.6694 15.8889 28.1476 15.8889C29.0477 15.8889 29.7228 16.127 30.1729 16.6032C30.6229 17.0688 30.8855 17.7249 30.9605 18.5714H29.2446C29.1696 18.1376 29.0524 17.836 28.893 17.6667C28.743 17.4974 28.4945 17.4127 28.1476 17.4127C27.7444 17.4127 27.4584 17.4868 27.2896 17.6349C27.1303 17.7831 27.0506 17.963 27.0506 18.1746C27.0506 18.4392 27.149 18.6349 27.3459 18.7619C27.5522 18.8783 27.8053 18.9789 28.1054 19.0635C28.4054 19.1376 28.7289 19.2169 29.0758 19.3016C29.4228 19.3757 29.7462 19.5027 30.0463 19.6826C30.3463 19.8519 30.5948 20.0953 30.7917 20.4127C30.998 20.7302 31.1011 21.1587 31.1011 21.6984C31.1011 22.0476 31.0402 22.3704 30.9183 22.6667C30.8058 22.963 30.6276 23.2169 30.3838 23.4286C30.1494 23.6402 29.8447 23.8095 29.4696 23.9365C29.104 24.0529 28.6633 24.1111 28.1476 24.1111Z" fill="#214674"/>
<path d="M30.7917 25.4603H31.3121C31.8653 25.4603 32.2685 25.3122 32.5217 25.0159C32.7748 24.7302 32.9014 24.2646 32.9014 23.6191V22.2698C32.9014 22.0265 32.9108 21.7989 32.9295 21.5873C32.9576 21.3651 33.0092 21.1587 33.0842 20.9683C33.1592 20.7778 33.2671 20.5979 33.4077 20.4286C33.5484 20.2593 33.7359 20.1111 33.9703 19.9841C33.7359 19.8571 33.5484 19.7143 33.4077 19.5556C33.2671 19.3862 33.1592 19.2064 33.0842 19.0159C33.0092 18.8254 32.9576 18.6243 32.9295 18.4127C32.9108 18.1905 32.9014 17.963 32.9014 17.7302V16.381C32.9014 15.7355 32.7748 15.2698 32.5217 14.9841C32.2685 14.6878 31.8653 14.5397 31.3121 14.5397H30.7917V12.8571H31.734C33.6374 12.8571 34.5891 13.9312 34.5891 16.0794V17.5079C34.5891 18.0794 34.6923 18.4868 34.8985 18.7302C35.1142 18.9735 35.3861 19.1217 35.7143 19.1746V20.8254C35.3861 20.8783 35.1142 21.0265 34.8985 21.2698C34.6923 21.5026 34.5891 21.9048 34.5891 22.4762V23.9206C34.5891 26.0688 33.6374 27.1429 31.734 27.1429H30.7917V25.4603Z" fill="#214674"/>
</svg>
