<svg width="40" height="40" viewBox="0 0 40 40" fill="none" xmlns="http://www.w3.org/2000/svg">
<rect x="0.5" y="0.5" width="39" height="39" rx="3.5" stroke="#0077B5"/>
<path d="M33 22.2152C33 17.0722 30.2508 14.6786 26.5836 14.6786C23.6248 14.6786 22.3001 16.3038 21.5605 17.4438V15.0722H15.987C16.0605 16.6434 15.987 31.8162 15.987 31.8162H21.5605V22.465C21.5605 21.9645 21.5966 21.4653 21.744 21.107C22.1468 20.1073 23.0638 19.0722 24.6034 19.0722C26.6208 19.0722 27.4272 20.6076 27.4272 22.8577V31.8157H32.9998L33 22.2152Z" fill="#0077B5"/>
<path d="M12.9023 15.0718H7.32953V31.8157H12.9023V15.0718Z" fill="#0077B5"/>
<path d="M13.2694 9.89218C13.2332 8.25044 12.0592 7 10.1528 7C8.24635 7 7 8.25044 7 9.89218C7 11.4999 8.20951 12.7864 10.0804 12.7864H10.116C12.0592 12.7864 13.2694 11.4999 13.2694 9.89218Z" fill="#0077B5"/>
</svg>
