<svg width="6" height="28" viewBox="0 0 6 28" fill="none" xmlns="http://www.w3.org/2000/svg">
<path d="M6 3C6 4.65685 4.65685 6 3 6C1.34315 6 0 4.65685 0 3C0 1.34315 1.34315 0 3 0C4.65685 0 6 1.34315 6 3Z" fill="white"/>
<path d="M6 14C6 15.6569 4.65685 17 3 17C1.34315 17 0 15.6569 0 14C0 12.3431 1.34315 11 3 11C4.65685 11 6 12.3431 6 14Z" fill="white"/>
<path d="M6 25C6 26.6569 4.65685 28 3 28C1.34315 28 0 26.6569 0 25C0 23.3431 1.34315 22 3 22C4.65685 22 6 23.3431 6 25Z" fill="white"/>
</svg>
