<svg width="40" height="40" viewBox="0 0 40 40" fill="none" xmlns="http://www.w3.org/2000/svg">
<rect x="0.5" y="0.5" width="39" height="39" rx="3.5" fill="#071F29" stroke="#26C9FE"/>
<path d="M14.7555 8.88892H7.61481V29.6297H9.74814V22.8148H14.963C15.9704 22.8148 16.837 22.6297 17.5704 22.2667C18.3037 21.9037 18.8444 21.4741 19.2 20.9926C19.5555 20.5111 19.837 19.8889 20.0444 19.126C20.2518 18.363 20.3778 17.7334 20.4148 17.2297C20.4518 16.726 20.4741 16.126 20.4741 15.4371C20.4741 13.4815 20.0074 11.9037 19.0667 10.6963C18.1259 9.48892 16.6889 8.88892 14.7555 8.88892ZM18.3259 16.7408C18.3185 17.0371 18.2444 17.4815 18.1185 18.0741C17.9926 18.6667 17.8148 19.1185 17.5852 19.4371C17.3555 19.7556 17 20.0519 16.5037 20.326C16.0074 20.6 15.4074 20.7408 14.6963 20.7408H9.74814V10.963H14.5778C17.0889 10.963 18.3407 12.4667 18.3407 15.4667C18.3407 16.0222 18.3333 16.4445 18.3259 16.7408Z" fill="white"/>
<path d="M30.5333 21.8074C29.7555 21.4889 28.9704 21.2074 28.1778 20.9481C27.3852 20.6889 26.6741 20.3777 26.0444 20C25.4148 19.6222 25.0963 19.1111 25.0963 18.4592C25.0963 17.8666 25.3481 17.3777 25.8518 16.9926C26.3555 16.6074 27.1185 16.4148 28.1481 16.4148C29.1778 16.4148 30.0074 16.6592 30.637 17.1555L31.3185 15.2889L30.9629 15.0814C30.7259 14.9407 30.3333 14.8 29.7778 14.6518C29.2222 14.5037 28.6296 14.4296 28 14.4296C26.2 14.4296 24.9037 14.8592 24.1037 15.7185C23.3037 16.5777 22.9037 17.5037 22.9037 18.5037C22.9037 19.5037 23.2666 20.3481 24 21.037C24.5926 21.6296 25.2815 22.0666 26.0592 22.3407C26.837 22.6148 27.6148 22.8814 28.3852 23.1259C29.1555 23.3703 29.8074 23.7111 30.3407 24.1333C30.8741 24.5555 31.1407 25.1333 31.1407 25.8518C31.1407 26.5703 30.8296 27.1259 30.2074 27.5111C29.5852 27.8963 28.8518 28.0889 28 28.0889C27.1481 28.0889 26.4 27.8889 25.7481 27.4814C25.0963 27.074 24.7333 26.5111 24.6518 25.7777L22.5778 25.8666C22.6148 27.0518 23.1185 28.0518 24.0889 28.8592C25.0592 29.6666 26.3926 30.074 28.1037 30.074C29.8148 30.074 31.1111 29.6666 32 28.8444C32.8889 28.0222 33.3333 27.0592 33.3333 25.9555C33.3333 24.8518 33.0592 23.9629 32.5185 23.2889C31.9778 22.6148 31.3111 22.1259 30.5333 21.8074Z" fill="white"/>
</svg>
