<svg width="40" height="40" viewBox="0 0 40 40" fill="none" xmlns="http://www.w3.org/2000/svg">
<rect x="0.5" y="0.5" width="39" height="39" rx="3.5" fill="white" stroke="#C76494"/>
<path fill-rule="evenodd" clip-rule="evenodd" d="M30.5028 23.1051C31.2822 22.7933 32.2865 22.62 33.5736 22.764C33.8344 22.7932 34.1026 22.8339 34.2857 22.8857L34.2847 21.8347C34.0091 21.7521 33.4755 21.7078 33.0161 21.7105C31.9064 21.7158 30.9585 21.9716 30.1532 22.3526C29.8581 21.7877 29.5605 21.2911 29.5105 20.9216C29.4524 20.4898 29.3847 20.2322 29.455 19.7187C29.5252 19.2043 29.8351 18.4766 29.8304 18.4224C29.8257 18.3683 29.7611 18.1062 29.1212 18.1016C28.4814 18.0973 27.9349 18.2198 27.8702 18.3823C27.8054 18.5451 27.6824 18.9103 27.6057 19.2913C27.4938 19.8484 26.3289 21.8365 25.6668 22.876C25.4493 22.4701 25.2654 22.112 25.2275 21.8296C25.1692 21.3977 25.1017 21.1411 25.1719 20.6267C25.2431 20.1124 25.552 19.3845 25.5473 19.3304C25.5429 19.2763 25.478 19.0142 24.8381 19.0097C24.1983 19.0052 23.6509 19.1278 23.5871 19.2904C23.5223 19.4531 23.4538 19.8325 23.3226 20.1994C23.1912 20.5661 21.6425 23.8828 21.2366 24.7418C21.0731 25.0886 20.9017 25.432 20.7225 25.7715L20.7216 25.7696L20.7003 25.8123C20.592 26.0165 20.5274 26.1303 20.5274 26.1303L20.5293 26.1348C20.4433 26.2847 20.3508 26.4244 20.3055 26.4244C20.273 26.4244 20.2092 26.0245 20.3194 25.4755C20.5495 24.3248 21.1034 22.5311 21.0979 22.4692C21.095 22.4372 21.2005 22.1244 20.7364 21.9608C20.2851 21.8027 20.1241 22.0675 20.0825 22.0685C20.0428 22.0695 20.0132 22.1617 20.0132 22.1617C20.0132 22.1617 20.5153 20.1442 19.0533 20.1442C18.1388 20.1442 16.8721 21.1056 16.2479 21.9768C15.5373 22.3495 14.8271 22.723 14.1174 23.0974C13.7735 23.2786 13.4229 23.4642 13.091 23.6401L13.0227 23.5681C11.249 21.7505 7.9711 20.465 8.10989 18.0209C8.16069 17.1325 8.48239 14.7932 14.4096 11.9558C19.2651 9.63082 23.1515 10.2705 23.8237 11.6883C24.7835 13.7139 21.7461 17.4783 16.7037 18.021C14.7822 18.228 13.7707 17.5129 13.5191 17.2464C13.2546 16.9657 13.2149 16.9531 13.1161 17.0056C12.9569 17.0898 13.0545 17.3328 13.114 17.4809L13.1161 17.4861C13.2667 17.8628 13.8844 18.5301 14.9376 18.8624C15.8642 19.1546 18.1195 19.3153 20.8473 18.3017C23.9025 17.1663 26.288 14.008 25.5871 11.3676C24.8743 8.68271 20.2406 7.79983 15.855 9.29663C13.2445 10.1877 10.4187 11.5861 8.38722 13.4119C5.97205 15.583 5.58643 17.4719 5.74552 18.2616C6.30951 21.0673 10.3338 22.8938 11.9454 24.2476L11.7235 24.365C10.9152 24.7497 7.84806 26.2909 7.08061 27.9213C6.21055 29.7701 7.21928 31.0965 7.88701 31.275C9.9564 31.8276 12.0804 30.8325 13.2213 29.197C14.3624 27.5624 14.2228 25.433 13.6995 24.461L13.6791 24.4254L14.3116 24.0675C14.6965 23.8511 15.0849 23.6405 15.4767 23.4358C15.2806 23.9517 15.1373 24.5702 15.0624 25.463C14.9747 26.513 15.4222 27.8688 16.0075 28.4027C16.2655 28.6383 16.5763 28.6436 16.7723 28.6436C17.4538 28.6436 17.7654 28.0979 18.1074 27.454C18.5273 26.6642 18.8998 25.7437 18.8998 25.7437C18.8998 25.7437 18.432 28.2285 19.7062 28.2285C20.1704 28.2285 20.6373 27.6504 20.8454 27.3553L20.8464 27.3607L20.8823 27.303C20.9304 27.232 20.9582 27.1866 20.9582 27.1866L20.9601 27.1741C21.1468 26.8631 21.5612 26.1534 22.1815 24.9823C22.9831 23.4704 23.7526 21.5762 23.7526 21.5762C23.7526 21.5762 23.8237 22.0391 24.0587 22.8049C24.1964 23.2562 24.4895 23.7536 24.7207 24.2318C24.5348 24.4796 24.4202 24.6216 24.4202 24.6216L24.4239 24.6296C24.2658 24.8314 24.1024 25.0293 23.9339 25.2231C23.3013 25.9471 22.5468 26.7741 22.446 27.0133C22.3267 27.2948 22.3545 27.5011 22.5848 27.6681C22.7521 27.7899 23.0517 27.8084 23.3632 27.7879C23.9327 27.7514 24.3332 27.6155 24.5301 27.533C24.8381 27.4283 25.197 27.2638 25.5334 27.0256C26.1549 26.5877 26.5294 25.9596 26.4934 25.1289C26.4728 24.6714 26.3213 24.2175 26.1289 23.7881C26.1854 23.7101 26.2418 23.6319 26.2982 23.552C27.2776 22.1777 28.0367 20.6664 28.0367 20.6664C28.0367 20.6664 28.1077 21.1292 28.3427 21.8949C28.4619 22.2835 28.6959 22.7062 28.9058 23.1211C27.9848 23.8398 27.4142 24.674 27.2164 25.2221C26.8502 26.235 27.1368 26.694 27.675 26.799C27.9192 26.8468 28.2632 26.7385 28.522 26.6338C28.8458 26.5308 29.2314 26.3603 29.5938 26.1044C30.2144 25.6654 30.8099 25.0506 30.7737 24.2199C30.7581 23.8414 30.6471 23.4658 30.5028 23.1051ZM9.77904 26.8579C10.4623 26.2376 11.3455 25.6673 11.9316 25.3154L11.9796 25.2877L11.9804 25.2872C12.1107 25.2118 12.2876 25.1094 12.4985 24.9885L12.5605 24.9549L12.5595 24.9528C12.5916 24.935 12.6242 24.9163 12.6571 24.8973C12.6716 24.8889 12.6863 24.8805 12.701 24.8721C13.1098 26.3192 12.714 27.594 11.7541 28.5996C10.8396 29.5576 9.56171 29.9201 9.01436 29.6154C8.42264 29.2858 8.65736 27.875 9.77904 26.8579ZM28.1561 25.844C28.0552 25.7745 28.0719 25.5517 28.4039 24.8587C28.5341 24.5869 28.831 24.1284 29.3461 23.6905C29.4053 23.8708 29.4423 24.0432 29.4413 24.2039C29.435 25.2773 28.6379 25.6778 28.1561 25.844ZM16.9545 23.8355C17.2014 23.1165 17.7293 22.2573 18.0391 21.9242C18.5375 21.3878 19.0879 21.2129 19.2208 21.4297C19.3909 21.7067 18.6142 23.781 18.4144 24.2485C18.0955 24.9948 17.4297 26.903 17.0238 26.801C16.6761 26.7138 16.4635 25.2629 16.9545 23.8355ZM23.6011 26.8496C23.5587 26.8249 23.6567 26.7359 23.6567 26.7359C23.6567 26.7359 24.3454 26.0244 24.6155 25.7018C24.7984 25.4831 24.9784 25.2622 25.1555 25.0391C25.1573 25.0649 25.1583 25.0888 25.1583 25.1138C25.1564 25.9658 24.2993 26.5416 23.9173 26.7723C23.7823 26.8399 23.6584 26.8826 23.6011 26.8496Z" fill="#C76494"/>
</svg>
