<svg width="40" height="40" viewBox="0 0 40 40" fill="none" xmlns="http://www.w3.org/2000/svg">
<rect x="0.5" y="0.5" width="39" height="39" rx="3.5" fill="white" stroke="#1C78C0"/>
<g clip-path="url(#clip0)">
<path d="M20 4.28571L33.8888 12.1428V27.8571L20 35.7143L6.11121 27.8571V12.1428L20 4.28571Z" fill="white"/>
<path d="M31.4085 27.315L20.4583 33.509V28.6847L27.2809 24.9316L31.4085 27.315ZM32.1576 26.6366V13.6828L28.1504 15.9955V24.3214L32.1576 26.6366ZM8.54684 27.315L19.4971 33.509V28.6847L12.6745 24.9316L8.54684 27.315ZM7.79779 26.6366V13.6828L11.8049 15.9955V24.3214L7.79779 26.6366ZM8.2666 12.8447L19.4971 6.49094V11.1555L12.3026 15.1128L12.2476 15.1443L8.2666 12.8447ZM31.6888 12.8447L20.4583 6.49094V11.1555L27.6528 15.1128L27.7078 15.1443L31.6888 12.8447Z" fill="#8ED6FB"/>
<path d="M19.4971 27.5874L12.7662 23.8867V16.5533L19.4971 20.44V27.5874ZM20.4583 27.5874L27.1893 23.8867V16.5533L20.4583 20.44V27.5874ZM13.2219 15.7047L19.979 11.9883L26.7362 15.7047L19.979 19.6071L13.2219 15.7047Z" fill="#1C78C0"/>
</g>
<defs>
<clipPath id="clip0">
<rect width="31.4286" height="31.4286" fill="white" transform="translate(4.28571 4.28571)"/>
</clipPath>
</defs>
</svg>
